<svg xmlns="http://www.w3.org/2000/svg" width="256" height="256" viewBox="0 0 256 256">
  <rect width="256" height="256" fill="none"/>
  <rect x="32" y="48" width="192" height="160" rx="8" fill="#f1f3f9" stroke="#4a6bdf" stroke-width="8"/>
  <circle cx="184" cy="80" r="16" fill="#34a853"/>
  <path d="M160,148c0-13.25-24.62-24-55-24s-55,10.75-55,24,24.62,24,55,24,55-10.75,55-24Z" fill="#4a6bdf"/>
  <path d="M95.33,60.67c-2.76,5.23-9.24,17.33-9.33,28A36,36,0,0,0,104,124c11.63,6.21,25.76,5.54,36-4.67" fill="none" stroke="#333" stroke-linecap="round" stroke-linejoin="round" stroke-width="8"/>
  <rect x="150" y="156" width="56" height="28" rx="4" fill="#fff" stroke="#333" stroke-linecap="round" stroke-linejoin="round" stroke-width="4"/>
  <line x1="168" y1="170" x2="188" y2="170" fill="none" stroke="#333" stroke-linecap="round" stroke-linejoin="round" stroke-width="4"/>
</svg> 